<svg xmlns="http://www.w3.org/2000/svg" width="540" height="110" viewBox="0 0 540 110" style="background:white;font-family:Arial,sans-serif;"><rect x="270" y="49" width="230" height="12" fill="#e74c3c" opacity="0.25"/><line x1="40" y1="55" x2="500" y2="55" stroke="#333" stroke-width="2"/><polygon points="40,50 30,55 40,60" fill="#333"/><polygon points="500,50 510,55 500,60" fill="#333"/><line x1="40" y1="49" x2="40" y2="61" stroke="#333" stroke-width="1.5"/><text x="40" y="77" text-anchor="middle" font-size="12" fill="#333">-2</text><line x1="97.5" y1="49" x2="97.5" y2="61" stroke="#333" stroke-width="1.5"/><text x="97.5" y="77" text-anchor="middle" font-size="12" fill="#333">-1</text><line x1="155" y1="49" x2="155" y2="61" stroke="#333" stroke-width="1.5"/><text x="155" y="77" text-anchor="middle" font-size="12" fill="#333">0</text><line x1="212.5" y1="49" x2="212.5" y2="61" stroke="#333" stroke-width="1.5"/><text x="212.5" y="77" text-anchor="middle" font-size="12" fill="#333">1</text><line x1="270" y1="49" x2="270" y2="61" stroke="#333" stroke-width="1.5"/><text x="270" y="77" text-anchor="middle" font-size="12" fill="#333">2</text><line x1="327.5" y1="49" x2="327.5" y2="61" stroke="#333" stroke-width="1.5"/><text x="327.5" y="77" text-anchor="middle" font-size="12" fill="#333">3</text><line x1="385" y1="49" x2="385" y2="61" stroke="#333" stroke-width="1.5"/><text x="385" y="77" text-anchor="middle" font-size="12" fill="#333">4</text><line x1="442.5" y1="49" x2="442.5" y2="61" stroke="#333" stroke-width="1.5"/><text x="442.5" y="77" text-anchor="middle" font-size="12" fill="#333">5</text><line x1="500" y1="49" x2="500" y2="61" stroke="#333" stroke-width="1.5"/><text x="500" y="77" text-anchor="middle" font-size="12" fill="#333">6</text><polygon points="500,50 510,55 500,60" fill="#e74c3c"/><circle cx="270" cy="55" r="7" fill="#e74c3c" stroke="#e74c3c" stroke-width="2"/><text x="270" y="22" text-anchor="middle" font-size="15" fill="#c0392b" font-weight="bold">h >= 2</text><text x="270" y="102" text-anchor="middle" font-size="10" fill="#666">Filled circle = value included (&gt;= or &lt;=)   |   Open circle = value not included (&gt; or &lt;)</text></svg>