<svg xmlns="http://www.w3.org/2000/svg" width="540" height="110" viewBox="0 0 540 110" style="background:white;font-family:Arial,sans-serif;"><rect x="316" y="49" width="184" height="12" fill="#e74c3c" opacity="0.25"/><line x1="40" y1="55" x2="500" y2="55" stroke="#333" stroke-width="2"/><polygon points="40,50 30,55 40,60" fill="#333"/><polygon points="500,50 510,55 500,60" fill="#333"/><line x1="40" y1="49" x2="40" y2="61" stroke="#333" stroke-width="1.5"/><text x="40" y="77" text-anchor="middle" font-size="12" fill="#333">-2</text><line x1="86" y1="49" x2="86" y2="61" stroke="#333" stroke-width="1.5"/><text x="86" y="77" text-anchor="middle" font-size="12" fill="#333">-1</text><line x1="132" y1="49" x2="132" y2="61" stroke="#333" stroke-width="1.5"/><text x="132" y="77" text-anchor="middle" font-size="12" fill="#333">0</text><line x1="178" y1="49" x2="178" y2="61" stroke="#333" stroke-width="1.5"/><text x="178" y="77" text-anchor="middle" font-size="12" fill="#333">1</text><line x1="224" y1="49" x2="224" y2="61" stroke="#333" stroke-width="1.5"/><text x="224" y="77" text-anchor="middle" font-size="12" fill="#333">2</text><line x1="270" y1="49" x2="270" y2="61" stroke="#333" stroke-width="1.5"/><text x="270" y="77" text-anchor="middle" font-size="12" fill="#333">3</text><line x1="316" y1="49" x2="316" y2="61" stroke="#333" stroke-width="1.5"/><text x="316" y="77" text-anchor="middle" font-size="12" fill="#333">4</text><line x1="362" y1="49" x2="362" y2="61" stroke="#333" stroke-width="1.5"/><text x="362" y="77" text-anchor="middle" font-size="12" fill="#333">5</text><line x1="408" y1="49" x2="408" y2="61" stroke="#333" stroke-width="1.5"/><text x="408" y="77" text-anchor="middle" font-size="12" fill="#333">6</text><line x1="454" y1="49" x2="454" y2="61" stroke="#333" stroke-width="1.5"/><text x="454" y="77" text-anchor="middle" font-size="12" fill="#333">7</text><line x1="500" y1="49" x2="500" y2="61" stroke="#333" stroke-width="1.5"/><text x="500" y="77" text-anchor="middle" font-size="12" fill="#333">8</text><polygon points="500,50 510,55 500,60" fill="#e74c3c"/><circle cx="316" cy="55" r="7" fill="#e74c3c" stroke="#e74c3c" stroke-width="2"/><text x="270" y="22" text-anchor="middle" font-size="15" fill="#c0392b" font-weight="bold">x >= 4</text><text x="270" y="102" text-anchor="middle" font-size="10" fill="#666">Filled circle = value included (&gt;= or &lt;=)   |   Open circle = value not included (&gt; or &lt;)</text></svg>